HIERARCHY
ROOT Hips
{
	OFFSET 0.000000 89.005402 0.000000
	CHANNELS 6 Xposition Yposition Zposition Xrotation Yrotation Zrotation
	JOINT Spine
	{
		OFFSET 0.116900 10.681000 0.373400
		CHANNELS 3 Xrotation Yrotation Zrotation
		JOINT Spine1
		{
			OFFSET 0.000000 13.840401 0.053500
			CHANNELS 3 Xrotation Yrotation Zrotation
			JOINT Spine2
			{
				OFFSET 0.000000 14.712700 -0.366200
				CHANNELS 3 Xrotation Yrotation Zrotation
				JOINT Neck
				{
					OFFSET 0.000000 35.415497 -3.314200
					CHANNELS 3 Xrotation Yrotation Zrotation
					JOINT Head
					{
						OFFSET 0.000000 16.899200 1.218300
						CHANNELS 3 Xrotation Yrotation Zrotation
						JOINT HeadTop_End
						{
							OFFSET 0.000000 22.206207 2.192500
							CHANNELS 3 Xrotation Yrotation Zrotation
							End Site
							{
								OFFSET 0.000000 22.314178 0.000000
							}
						}
					}
				}
				JOINT LeftShoulder
				{
					OFFSET 12.896400 26.716293 -4.548400
					CHANNELS 3 Xrotation Yrotation Zrotation
					JOINT LeftArm
					{
						OFFSET 19.027000 -4.857010 -1.718400
						CHANNELS 3 Xrotation Yrotation Zrotation
						JOINT LeftForeArm
						{
							OFFSET 24.179897 0.000000 0.000000
							CHANNELS 3 Xrotation Yrotation Zrotation
							JOINT LeftHand
							{
								OFFSET 27.156403 0.000000 0.000000
								CHANNELS 3 Xrotation Yrotation Zrotation
								JOINT LeftHandIndex1
								{
									OFFSET 16.441200 0.000000 0.000000
									CHANNELS 3 Xrotation Yrotation Zrotation
									JOINT LeftHandIndex2
									{
										OFFSET 4.821899 0.000000 0.000000
										CHANNELS 3 Xrotation Yrotation Zrotation
										JOINT LeftHandIndex3
										{
											OFFSET 6.386497 0.000000 0.000000
											CHANNELS 3 Xrotation Yrotation Zrotation
											JOINT LeftHandIndex4
											{
												OFFSET 5.188988 0.000000 0.000000
												CHANNELS 3 Xrotation Yrotation Zrotation
												End Site
												{
													OFFSET -0.178703 5.185913 0.000177
												}
											}
										}
									}
								}
								JOINT LeftHandThumb1
								{
									OFFSET 6.534897 -5.032593 5.900300
									CHANNELS 3 Xrotation Yrotation Zrotation
									JOINT LeftHandThumb2
									{
										OFFSET 3.818176 -2.204422 2.204423
										CHANNELS 3 Xrotation Yrotation Zrotation
										JOINT LeftHandThumb3
										{
											OFFSET 3.252098 -1.877594 1.877601
											CHANNELS 3 Xrotation Yrotation Zrotation
											JOINT LeftHandThumb4
											{
												OFFSET 5.251778 -3.032120 3.032117
												CHANNELS 3 Xrotation Yrotation Zrotation
												End Site
												{
													OFFSET 0.000023 6.780014 0.000000
												}
											}
										}
									}
								}
							}
						}
					}
				}
				JOINT RightShoulder
				{
					OFFSET -12.896300 26.716293 -4.548400
					CHANNELS 3 Xrotation Yrotation Zrotation
					JOINT RightArm
					{
						OFFSET -19.027000 -4.857010 -1.718400
						CHANNELS 3 Xrotation Yrotation Zrotation
						JOINT RightForeArm
						{
							OFFSET -24.179897 0.000000 0.000000
							CHANNELS 3 Xrotation Yrotation Zrotation
							JOINT RightHand
							{
								OFFSET -27.156403 0.000000 0.000000
								CHANNELS 3 Xrotation Yrotation Zrotation
								JOINT RightHandThumb1
								{
									OFFSET -6.591202 -4.852203 5.988100
									CHANNELS 3 Xrotation Yrotation Zrotation
									JOINT RightHandThumb2
									{
										OFFSET -3.818176 -2.204422 2.204423
										CHANNELS 3 Xrotation Yrotation Zrotation
										JOINT RightHandThumb3
										{
											OFFSET -3.252098 -1.877594 1.877601
											CHANNELS 3 Xrotation Yrotation Zrotation
											JOINT RightHandThumb4
											{
												OFFSET -5.251778 -3.032120 3.032117
												CHANNELS 3 Xrotation Yrotation Zrotation
												End Site
												{
													OFFSET -0.000023 6.780014 0.000000
												}
											}
										}
									}
								}
								JOINT RightHandIndex1
								{
									OFFSET -16.029404 0.000000 0.000000
									CHANNELS 3 Xrotation Yrotation Zrotation
									JOINT RightHandIndex2
									{
										OFFSET -5.213303 0.000000 0.000000
										CHANNELS 3 Xrotation Yrotation Zrotation
										JOINT RightHandIndex3
										{
											OFFSET -6.386528 0.000000 0.000000
											CHANNELS 3 Xrotation Yrotation Zrotation
											JOINT RightHandIndex4
											{
												OFFSET -5.189026 0.000000 0.000000
												CHANNELS 3 Xrotation Yrotation Zrotation
												End Site
												{
													OFFSET 0.236702 5.183624 0.001972
												}
											}
										}
									}
								}
							}
						}
					}
				}
			}
		}
	}
	JOINT LeftUpLeg
	{
		OFFSET 14.073000 -7.904099 -1.463000
		CHANNELS 3 Xrotation Yrotation Zrotation
		JOINT LeftLeg
		{
			OFFSET -0.109806 -34.073280 4.093200
			CHANNELS 3 Xrotation Yrotation Zrotation
			JOINT LeftFoot
			{
				OFFSET 0.109806 -29.899420 -6.319000
				CHANNELS 3 Xrotation Yrotation Zrotation
				JOINT LeftToeBase
				{
					OFFSET 1.551100 -14.988700 20.535801
					CHANNELS 3 Xrotation Yrotation Zrotation
					JOINT LeftToe_End
					{
						OFFSET 0.221200 0.570800 13.248301
						CHANNELS 3 Xrotation Yrotation Zrotation
						End Site
						{
							OFFSET 0.000000 13.262435 0.000000
						}
					}
				}
			}
		}
	}
	JOINT RightUpLeg
	{
		OFFSET -13.839300 -7.904099 -1.463000
		CHANNELS 3 Xrotation Yrotation Zrotation
		JOINT RightLeg
		{
			OFFSET 0.109694 -34.073219 4.093300
			CHANNELS 3 Xrotation Yrotation Zrotation
			JOINT RightFoot
			{
				OFFSET -0.109694 -29.899384 -6.319200
				CHANNELS 3 Xrotation Yrotation Zrotation
				JOINT RightToeBase
				{
					OFFSET -1.551100 -14.988700 20.535801
					CHANNELS 3 Xrotation Yrotation Zrotation
					JOINT RightToe_End
					{
						OFFSET -0.221200 0.570900 13.248299
						CHANNELS 3 Xrotation Yrotation Zrotation
						End Site
						{
							OFFSET 0.000000 13.262440 0.000000
						}
					}
				}
			}
		}
	}
}
MOTION
Frames: 6
Frame Time: 0.033333
-0.129960 77.768700 1.099009 -0.351950 -3.554625 1.312300 2.083833 0.673869 -0.177815 3.140202 1.345157 -0.466471 3.139151 1.352376 -0.453904 -4.205202 -2.163389 -2.056015 -15.117956 -14.409425 3.305000 -0.000001 0.000001 -0.000000 1.270746 -7.258626 3.378168 22.267547 -18.233388 -69.129581 0.000048 -104.051553 0.000049 6.481871 8.961297 12.063320 -4.968107 -4.092709 -38.314383 2.313224 5.151753 -48.338492 0.974956 3.537177 -30.811304 0.000000 0.000001 -0.000002 -0.478385 5.488199 -5.779702 5.951911 16.506206 -0.887328 2.991438 11.794195 0.459793 0.000005 -0.000000 0.000001 0.665235 1.653911 3.913657 23.885527 28.156838 62.391012 0.000048 111.559713 -0.000050 0.322825 1.491239 -17.985811 -5.448168 -11.927095 1.895706 4.637219 -8.634117 -0.225407 0.191942 -3.874970 -2.140558 0.000000 -0.000001 0.000001 0.513472 -3.716072 50.672029 1.160147 -3.850530 33.523979 1.411937 -4.205048 37.107386 -0.000000 -0.000000 0.000000 -18.930952 5.470189 -3.333082 53.581895 4.439461 3.359382 -32.926231 -1.068722 2.622723 -5.537294 0.000001 0.000001 0.000001 0.000000 0.000000 -15.973005 -8.092173 -0.640044 54.837741 -10.915869 -4.895587 -35.401103 -4.829713 3.548042 -8.029179 -0.000005 -0.000001 -0.000000 0.000002 0.000001 
-0.117805 78.765221 1.159125 0.124734 -3.321754 1.000260 1.867062 0.646991 -0.132473 2.755539 1.284374 -0.298741 2.754420 1.290393 -0.287274 -4.044269 -2.166134 -1.831403 -15.606506 -14.047121 2.931582 -0.000001 -0.000001 -0.000000 1.382953 -8.237778 4.865640 22.426424 -18.945247 -70.965037 0.000158 -104.989563 0.000168 5.941623 8.272340 13.908577 -5.069967 -4.179112 -38.477714 2.289829 5.130916 -48.077305 0.968771 3.526794 -30.710839 -0.000000 -0.000001 -0.000000 -0.504156 5.449536 -5.356384 5.953594 16.511868 -0.888585 3.094415 12.054661 0.399746 -0.000002 0.000001 -0.000000 0.792970 2.640340 3.918264 25.185172 28.947141 60.691292 -0.000003 112.925034 -0.000013 -0.937322 3.798930 -17.439971 -5.451945 -11.929109 1.521039 4.637218 -8.634114 -0.225408 0.158774 -3.785429 -2.139540 0.000000 -0.000001 -0.000001 0.361099 -3.574132 50.412687 1.146050 -3.829194 33.313332 1.399061 -4.188039 36.931588 -0.000000 0.000002 -0.000001 -19.287339 5.237972 -3.347867 52.115645 4.581617 3.960980 -30.506254 -0.979931 2.467036 -7.358033 -0.000001 0.000001 0.000000 0.000000 -0.000000 -16.142572 -8.455643 -0.612365 53.103532 -10.980160 -4.743327 -32.667050 -4.258710 3.827474 -10.033443 0.000003 -0.000001 -0.000000 0.000001 0.000000 
-0.041654 81.679886 1.587446 0.499213 -3.492236 0.385674 1.467667 0.705318 0.101755 2.193300 1.404841 0.043946 2.191279 1.412204 0.054358 -4.186322 -2.177011 -1.591680 -14.563727 -13.833435 3.037142 -0.000000 0.000001 0.000001 1.425622 -8.530099 5.517462 23.639454 -20.101537 -70.402134 0.000049 -108.098918 0.000060 6.336879 8.231975 14.639715 -5.250022 -4.398036 -38.547433 2.256733 5.101169 -47.706542 0.956577 3.506220 -30.511924 -0.000003 0.000001 0.000001 -0.541086 5.399765 -4.995956 5.862948 16.196807 -0.824722 3.167385 12.238114 0.357239 -0.000000 -0.000001 0.000002 0.902941 3.803919 5.712259 27.472191 28.386123 56.120485 0.000031 117.076382 -0.000037 -1.623894 5.108984 -17.190051 -5.356309 -12.047731 1.083086 4.637218 -8.634116 -0.225408 0.131674 -3.712284 -2.138670 0.000000 0.000001 -0.000000 0.123583 -3.358221 50.152044 1.130000 -3.804702 33.072158 1.389140 -4.174831 36.795363 0.000001 0.000000 0.000002 -18.971098 5.629273 -2.918578 47.919132 3.524746 5.171049 -22.632243 -0.536960 1.512716 -13.403661 -0.000001 0.000001 0.000000 0.000000 -0.000000 -15.154298 -9.141780 -1.333655 47.216828 -10.636909 -5.023543 -23.819679 -1.755113 7.372872 -13.103799 0.000002 0.000001 -0.000000 0.000001 0.000000 
0.088134 85.512589 2.127812 0.999198 -3.936793 -0.174641 0.971197 0.805127 0.402289 1.510998 1.615933 0.411007 1.507269 1.625735 0.419663 -4.794536 -2.196948 -1.440132 -12.454323 -13.839136 3.514730 -0.000001 -0.000003 -0.000000 1.366981 -8.045625 4.992036 25.464156 -20.900703 -67.209505 0.000022 -112.653691 0.000031 7.405031 9.088905 14.279241 -5.419013 -4.632302 -38.522564 2.237622 5.083764 -47.491046 0.946602 3.489232 -30.348098 -0.000000 -0.000000 0.000003 -0.557476 5.379464 -4.912541 5.790657 15.942223 -0.773760 3.232530 12.400857 0.319462 0.000001 0.000002 -0.000001 0.900270 4.102166 7.198359 28.886724 28.371721 51.038247 0.000050 121.977316 -0.000061 -0.584969 4.866806 -16.809773 -5.139077 -12.310760 0.709034 4.637217 -8.634116 -0.225405 0.071738 -3.550255 -2.136783 0.000001 -0.000000 -0.000000 -0.154225 -3.127460 50.187991 1.113440 -3.779252 32.822139 1.379802 -4.162336 36.666774 0.000001 -0.000003 0.000002 -18.710827 6.731789 -1.786485 41.853924 1.173193 5.996364 -10.042836 0.027173 -1.270496 -14.888071 -0.000001 -0.000001 -0.000000 -0.000000 -0.000000 -13.056847 -10.844224 -1.572435 38.253936 -8.016581 -5.230479 -12.815237 0.348878 7.966582 -13.746613 0.000897 -0.057596 -0.000000 0.000001 -0.000000 
0.259721 89.028709 2.592630 1.792278 -4.596650 -0.611025 0.463312 0.917652 0.772373 0.848905 1.850386 0.749391 0.842697 1.862306 0.754611 -5.871556 -2.194344 -1.472732 -10.494937 -13.952970 4.073877 -0.000001 -0.000002 -0.000000 1.246980 -6.968953 3.566366 26.993918 -21.151776 -61.980634 -0.000024 -117.955263 -0.000015 8.668583 10.536200 13.611602 -5.489856 -4.816747 -38.252348 2.231194 5.077888 -47.418373 0.935446 3.470205 -30.164960 0.000000 0.000002 -0.000001 -0.544449 5.401807 -5.218934 5.828575 16.074123 -0.801185 3.343399 12.676036 0.255287 -0.000001 0.000001 -0.000000 0.826864 3.254794 7.109546 28.134589 30.553687 46.728814 0.000024 126.404740 -0.000025 0.535841 4.233289 -16.454035 -4.822267 -12.690929 0.489971 4.637219 -8.634117 -0.225406 -0.061761 -3.188895 -2.132415 0.000000 0.000000 0.000001 -0.449600 -2.912925 50.576007 1.101635 -3.760921 32.642574 1.377873 -4.159784 36.640526 -0.000000 -0.000002 0.000001 -18.341607 8.502413 -1.027184 35.501192 0.265706 6.080567 1.793931 -0.846314 -1.640102 -21.508221 -0.016060 0.149436 -0.000000 -0.000000 -0.000000 -11.398195 -12.702855 -1.284119 29.779136 -5.351925 -5.084404 -2.174105 2.163219 6.538129 -18.467698 0.039855 -0.365108 0.000000 -0.000000 -0.000000 
0.470528 91.686249 2.843974 2.683395 -5.413699 -0.885757 0.074584 1.012446 1.145866 0.435176 2.038706 1.025434 0.425876 2.052948 1.025701 -7.342499 -2.133451 -1.612694 -9.340071 -13.880037 4.400719 -0.000000 -0.000001 0.000001 1.085568 -5.212141 2.243900 26.834384 -22.088359 -55.649984 -0.000007 -123.011953 0.000006 10.475074 12.685056 13.079815 -5.491113 -4.976799 -37.780344 2.209287 5.057768 -47.170533 0.914240 3.433506 -29.812522 0.000003 0.000001 -0.000004 -0.518169 5.444516 -5.752185 5.982591 16.608894 -0.911240 3.532561 13.140359 0.146166 -0.000004 -0.000002 0.000002 0.675877 1.620244 5.837824 24.184745 34.989420 43.276632 0.000005 129.866116 -0.000006 -0.064374 3.698112 -17.575340 -4.494090 -13.078552 0.456898 4.637217 -8.634114 -0.225404 -0.207869 -2.792573 -2.127413 0.000001 0.000000 -0.000002 -0.697506 -2.750704 51.037820 1.092992 -3.747406 32.510399 1.386032 -4.170711 36.752947 0.000001 0.000002 -0.000001 -17.713235 10.029521 -0.334373 29.600022 1.209086 5.205466 10.844148 -1.883266 -1.340936 -26.343391 -0.186446 0.719888 -0.000000 -0.000000 -0.000000 -10.540654 -13.697520 -1.117347 22.773357 -4.113718 -4.771843 7.415822 3.316089 6.094021 -22.632476 0.234211 -0.873288 0.000000 -0.000001 -0.000000 
